# xmcd
#
# Track frame offsets:
#  150
#  15300
#  55218
#  97425
#  142725
#  182775
#  200168
#  235150
#
# Disc length: 3661 seconds
#
# Revision: 0
# Processed by: cddbd v1.5.2PL0 Copyright (c) Steve Scherf et al.
# Submitted via: AltoMP3_Maker 3.0
#
DISCID=6c0e4b08
DTITLE=Gabi Berlin - Eein Kmo Hashir Haze
DYEAR=1900
DGENRE=
TTITLE0=Eein Kmo Hashir Haze
TTITLE1=Machrozet Valss
TTITLE2=Machrozet Tango
TTITLE3=Machrozet Shirey Roim
TTITLE4=Machrozet Ein kvar derech Hazara
TTITLE5=Halayla Ham
TTITLE6=Machrozet Hufsha Beadom
TTITLE7=Machrozet Prachim Ve Nearot
EXTD=
EXTT0=
EXTT1=
EXTT2=
EXTT3=
EXTT4=
EXTT5=
EXTT6=
EXTT7=
PLAYORDER=
